<?xml version="1.0" encoding="utf-8"?>
<!-- Generator: Adobe Illustrator 16.0.0, SVG Export Plug-In . SVG Version: 6.00 Build 0)  -->
<!DOCTYPE svg PUBLIC "-//W3C//DTD SVG 1.1//EN" "http://www.w3.org/Graphics/SVG/1.1/DTD/svg11.dtd">
<svg version="1.1" id="Layer_1" xmlns="http://www.w3.org/2000/svg" xmlns:xlink="http://www.w3.org/1999/xlink" x="0px" y="0px"
	 width="72px" height="17.295px" viewBox="0 0 72 17.295" enable-background="new 0 0 72 17.295" xml:space="preserve">
<g>
	<polygon fill="#8A4B52" points="12.742,12.293 12.742,12.294 13.924,13.347 	"/>
	<g>
		<path fill="#F7CE3C" d="M8.647,0L8.647,0v3.165c1.518,0,2.879,0.611,3.877,1.606c0.995,0.998,1.604,2.359,1.606,3.876h3.163
			C17.293,3.872,13.424,0.001,8.647,0"/>
		<path fill="#EB0029" d="M8.647,0C3.871,0.001,0.001,3.872,0,8.647h3.165c0-1.518,0.611-2.878,1.605-3.876
			c0.998-0.995,2.358-1.605,3.877-1.605V0z"/>
		<path fill="#859894" d="M17.295,8.647h-3.164c-0.002,1.405-0.523,2.672-1.389,3.646v0.001v-0.001l1.182,1.054l1.182,1.053
			C16.465,12.874,17.296,10.85,17.295,8.647"/>
		<path fill="#5C6670" d="M3.165,8.647H0c-0.001,2.202,0.83,4.227,2.189,5.751l2.361-2.105l0.002,0.001
			C3.687,11.319,3.165,10.053,3.165,8.647"/>
		<path fill="#8A4B52" d="M12.742,12.294c-1.01,1.129-2.463,1.836-4.095,1.836v3.165c2.563,0.001,4.879-1.122,6.458-2.896
			l-1.182-1.053L12.742,12.294z"/>
		<path fill="#A5A983" d="M4.553,12.294l-2.363,2.104l-0.001,0.001c1.579,1.773,3.894,2.896,6.456,2.896h0.003V14.13
			C7.016,14.13,5.562,13.423,4.553,12.294"/>
	</g>
	<polygon fill="#859894" points="4.551,12.293 2.189,14.398 4.553,12.294 	"/>
	<polygon fill="#222944" points="25.483,5.557 21.112,5.557 21.062,5.578 21.041,5.629 21.041,11.667 21.062,11.718 21.112,11.738 
		25.483,11.738 25.534,11.718 25.555,11.667 25.555,10.761 25.534,10.71 25.483,10.689 22.226,10.689 22.226,9.037 24.659,9.037 
		24.708,9.016 24.729,8.966 24.729,8.103 24.708,8.053 24.659,8.032 22.226,8.032 22.226,6.606 25.483,6.606 25.534,6.584 
		25.555,6.535 25.555,5.629 25.534,5.578 	"/>
	<polygon fill="#222944" points="33.148,5.557 32.031,5.557 31.966,5.602 30.173,10.187 28.362,5.602 28.297,5.557 27.173,5.557 
		27.112,5.588 27.107,5.655 29.608,11.694 29.675,11.738 30.582,11.738 30.647,11.694 33.212,5.655 33.207,5.588 	"/>
	<polygon fill="#222944" points="39.463,5.557 35.091,5.557 35.039,5.578 35.019,5.629 35.019,11.667 35.039,11.718 35.091,11.738 
		39.463,11.738 39.514,11.718 39.535,11.667 39.535,10.761 39.514,10.71 39.463,10.689 36.205,10.689 36.205,9.037 38.637,9.037 
		38.688,9.016 38.709,8.966 38.709,8.103 38.688,8.053 38.637,8.032 36.205,8.032 36.205,6.606 39.463,6.606 39.514,6.584 
		39.535,6.535 39.535,5.629 39.514,5.578 	"/>
	<polygon fill="#222944" points="46.91,5.557 45.895,5.557 45.844,5.578 45.822,5.629 45.822,9.706 45.463,9.205 45.461,9.204 
		42.715,5.585 42.654,5.557 41.74,5.557 41.691,5.578 41.67,5.629 41.67,11.667 41.691,11.718 41.74,11.738 42.756,11.738 
		42.807,11.718 42.828,11.667 42.828,7.606 43.197,8.118 43.199,8.12 46.027,11.712 46.084,11.738 46.91,11.738 46.961,11.718 
		46.98,11.667 46.98,5.629 46.961,5.578 	"/>
	<polygon fill="#222944" points="54.23,5.557 49.07,5.557 49.02,5.578 48.998,5.629 48.998,6.535 49.02,6.584 49.07,6.606 
		51.057,6.606 51.057,11.667 51.078,11.718 51.129,11.738 52.172,11.738 52.221,11.718 52.242,11.667 52.242,6.606 54.23,6.606 
		54.279,6.584 54.301,6.535 54.301,5.629 54.279,5.578 	"/>
	<polygon fill="#222944" points="57.432,5.557 56.389,5.557 56.338,5.578 56.318,5.629 56.318,11.667 56.338,11.718 56.389,11.738 
		57.432,11.738 57.482,11.718 57.502,11.667 57.502,5.629 57.482,5.578 	"/>
	<g>
		<path fill="#222944" d="M61.117,6.606h1.361c1.053,0.006,1.619,0.571,1.625,1.434v1.215c-0.006,0.863-0.572,1.43-1.625,1.435
			h-1.361V6.606z M62.533,5.557h-2.531l-0.051,0.021L59.93,5.629v6.038l0.021,0.051l0.051,0.021h2.531
			c0.871,0,1.561-0.268,2.031-0.707c0.473-0.44,0.721-1.046,0.721-1.712V7.986c0-0.671-0.248-1.28-0.719-1.72
			C64.094,5.825,63.404,5.556,62.533,5.557"/>
	</g>
	<polygon fill="#222944" points="71.928,6.606 71.979,6.584 72,6.535 72,5.629 71.979,5.578 71.928,5.557 67.557,5.557 
		67.508,5.578 67.486,5.629 67.486,11.667 67.508,11.718 67.557,11.738 71.928,11.738 71.979,11.718 72,11.667 72,10.761 
		71.979,10.71 71.928,10.689 68.672,10.689 68.672,9.037 71.104,9.037 71.154,9.016 71.174,8.966 71.174,8.103 71.154,8.053 
		71.104,8.032 68.672,8.032 68.672,6.606 	"/>
	<g>
		<path fill="#222944" d="M6.133,9.253c1.759,0,2.628-0.545,2.67-0.574l-0.175-0.27V8.73h0.039V8.409l-0.175,0.27
			c0.042,0.029,0.911,0.574,2.67,0.574V8.608c-0.812,0-1.402-0.125-1.785-0.246c-0.19-0.061-0.33-0.12-0.419-0.162L8.863,8.151
			l-0.02-0.012L8.842,8.138L8.763,8.087H8.628H8.532L8.453,8.138L8.451,8.139C8.399,8.17,7.656,8.607,6.133,8.608V9.253z"/>
		<path fill="#222944" d="M6.133,7.638c1.759,0,2.628-0.543,2.67-0.572L8.628,6.795v0.322h0.039V6.795L8.492,7.066
			c0.042,0.029,0.911,0.572,2.67,0.572V6.994c-0.812,0-1.403-0.125-1.785-0.246c-0.19-0.06-0.33-0.12-0.419-0.163L8.862,6.538
			L8.844,6.526l-0.002,0l-0.08-0.052H8.628H8.532L8.453,6.525l-0.001,0C8.399,6.557,7.656,6.993,6.133,6.994V7.638z"/>
		<path fill="#222944" d="M6.133,10.865c1.759,0.001,2.628-0.544,2.67-0.572l-0.175-0.271v0.322h0.039v-0.322l-0.175,0.271
			c0.042,0.028,0.911,0.573,2.67,0.572v-0.644c-0.812,0-1.402-0.125-1.785-0.245c-0.19-0.062-0.33-0.12-0.419-0.162l-0.095-0.05
			l-0.02-0.012H8.842L8.763,9.701H8.628H8.532L8.453,9.753H8.452c-0.053,0.031-0.796,0.468-2.319,0.469V10.865z"/>
	</g>
</g>
</svg>
